<svg xmlns="http://www.w3.org/2000/svg" version="1.1" xmlns:xlink="http://www.w3.org/1999/xlink" width="200" height="200" viewBox="0 0 200 200">
  <defs>
    <linearGradient id="menubook-gradient" x1="0%" y1="0%" x2="100%" y2="100%">
      <stop offset="0%" style="stop-color:#2563eb;stop-opacity:1" />
      <stop offset="100%" style="stop-color:#9333ea;stop-opacity:1" />
    </linearGradient>
  </defs>
  <rect width="200" height="200" fill="url('#menubook-gradient')" rx="20" />
  <g fill="#ffffff" transform="matrix(4.834485118029422,0,0,4.834485118029422,25.813143781101786,134.37256470114818)">
    <path d="M1.07-14.22L5.58-14.22L8.75-4.33L11.91-14.22L16.43-14.22L16.43 0L12.99 0L12.99-3.32L13.32-10.12L9.88 0L7.62 0L4.17-10.13L4.50-3.32L4.50 0L1.07 0L1.07-14.22ZM24.38 0L18.60 0L18.60-14.22L23.71-14.22Q26.46-14.22 27.89-13.21Q29.32-12.21 29.32-10.29L29.32-10.29Q29.32-9.19 28.81-8.41Q28.30-7.63 27.31-7.26L27.31-7.26Q28.43-6.96 29.02-6.16Q29.62-5.36 29.62-4.21L29.62-4.21Q29.62-2.12 28.30-1.07Q26.97-0.02 24.38 0L24.38 0ZM24.43-6.04L22.03-6.04L22.03-2.64L24.28-2.64Q25.21-2.64 25.70-3.06Q26.20-3.49 26.20-4.26L26.20-4.26Q26.20-6.04 24.43-6.04L24.43-6.04ZM22.03-11.57L22.03-8.29L23.82-8.29Q24.94-8.30 25.42-8.70Q25.90-9.10 25.90-9.88L25.90-9.88Q25.90-10.78 25.38-11.18Q24.86-11.57 23.71-11.57L23.71-11.57L22.03-11.57Z"></path>
  </g>
</svg>